<?xml version="1.0" encoding="UTF-8"?> <svg xmlns="http://www.w3.org/2000/svg" width="125" height="33" viewBox="0 0 125 33" fill="none"><path d="M21.2137 33H17.668C11.3772 33 6.26832 27.8853 6.26832 21.5874V8.60975C8.89901 8.60975 11.0341 10.7472 11.0341 13.3809V21.5874C11.0341 25.2516 14.0079 28.2288 17.668 28.2288H21.0421C27.1422 28.2288 32.232 23.3813 32.3273 17.2742C32.4227 11.0526 27.39 5.95697 21.2137 5.95697H5.65831C3.02763 5.95697 0.892578 3.81948 0.892578 1.18579H21.023C29.7729 1.18579 37.0359 8.1708 37.1121 16.9307C37.1884 25.786 30.0207 33 21.2137 33Z" fill="#0981C5"></path><path d="M51.6381 32.9999C45.233 32.9999 40.0288 27.7898 40.0288 21.3774C40.0288 14.9649 45.233 9.75476 51.6381 9.75476C58.0433 9.75476 63.2475 14.9649 63.2475 21.3774C63.2284 27.7898 58.0242 32.9999 51.6381 32.9999ZM51.6381 14.5259C47.8637 14.5259 44.7945 17.5986 44.7945 21.3774C44.7945 25.1561 47.8637 28.2288 51.6381 28.2288C55.4126 28.2288 58.4817 25.1561 58.4817 21.3774C58.4627 17.5986 55.3935 14.5259 51.6381 14.5259Z" fill="#0981C5"></path><path d="M103.794 32.9999H92.185C85.7799 32.9999 80.5757 27.7898 80.5757 21.3774C80.5757 14.9649 85.7799 9.75476 92.185 9.75476C98.5902 9.75476 103.794 14.9649 103.794 21.3774V32.9999ZM92.2041 14.5259C88.4296 14.5259 85.3605 17.5986 85.3605 21.3774C85.3605 25.1561 88.4296 28.2288 92.2041 28.2288H99.0477V21.3774C99.0286 17.5986 95.9595 14.5259 92.2041 14.5259Z" fill="#0981C5"></path><path d="M70.8535 32.3701H66.0878V21.3774C66.0878 14.9649 71.2919 9.75476 77.6971 9.75476H79.2793C79.4128 9.75476 79.5081 9.85018 79.5081 9.98377V12.7129C79.5081 13.7244 78.6884 14.5259 77.6971 14.5259C73.9226 14.5259 70.8535 17.5986 70.8535 21.3774V32.3701Z" fill="#0981C5"></path><path d="M112.03 32.8855H107.264V6.68219C107.264 4.0485 109.399 1.91101 112.03 1.91101V32.8855Z" fill="#0981C5"></path><path d="M117.324 1.44531V5H116.594V1.44531H117.324ZM118.418 1.44531V2.01904H115.517V1.44531H118.418ZM119.27 1.44531H119.89L120.803 4.05518L121.716 1.44531H122.336L121.052 5H120.554L119.27 1.44531ZM118.935 1.44531H119.553L119.665 3.98926V5H118.935V1.44531ZM122.053 1.44531H122.673V5H121.941V3.98926L122.053 1.44531Z" fill="#0083CA"></path></svg> 